<svg width="36" height="35" viewBox="0 0 36 35" fill="none" xmlns="http://www.w3.org/2000/svg">
<path d="M34.7534 14.1065H33.3577V14.0345H17.7632V20.9654H27.5557C26.1271 25.0001 22.2882 27.8963 17.7632 27.8963C12.0219 27.8963 7.36692 23.2414 7.36692 17.5C7.36692 11.7586 12.0219 7.10367 17.7632 7.10367C20.4134 7.10367 22.8245 8.10345 24.6603 9.73654L29.5613 4.83554C26.4667 1.95143 22.3272 0.172791 17.7632 0.172791C8.19429 0.172791 0.436035 7.93104 0.436035 17.5C0.436035 27.0689 8.19429 34.8272 17.7632 34.8272C27.3322 34.8272 35.0904 27.0689 35.0904 17.5C35.0904 16.3382 34.9709 15.2041 34.7534 14.1065Z" fill="#FFC107"/>
<path d="M2.43359 9.43504L8.12645 13.61C9.66683 9.79632 13.3974 7.10367 17.763 7.10367C20.4132 7.10367 22.8242 8.10345 24.6601 9.73654L29.5611 4.83554C26.4664 1.95143 22.327 0.172791 17.763 0.172791C11.1076 0.172791 5.3359 3.93019 2.43359 9.43504Z" fill="#FF3D00"/>
<path d="M17.7629 34.8272C22.2386 34.8272 26.3053 33.1144 29.38 30.329L24.0172 25.791C22.2775 27.1088 20.1151 27.8963 17.7629 27.8963C13.2561 27.8963 9.42943 25.0226 7.9878 21.0122L2.3374 25.3657C5.20505 30.9771 11.0287 34.8272 17.7629 34.8272Z" fill="#4CAF50"/>
<path d="M34.7534 14.1065H33.3577V14.0345H17.7632V20.9654H27.5557C26.8695 22.9035 25.6228 24.5747 24.0148 25.7919C24.0157 25.791 24.0166 25.7911 24.0174 25.7902L29.3802 30.3282C29.0007 30.673 35.0904 26.1636 35.0904 17.5C35.0904 16.3382 34.9708 15.2041 34.7534 14.1065Z" fill="#1976D2"/>
</svg>
