<svg width="55" height="55" viewBox="0 0 55 55" fill="none" xmlns="http://www.w3.org/2000/svg">
<path d="M29.8558 4.58301C32.434 4.58988 33.7425 4.60363 34.8723 4.63572L35.3169 4.65176C35.8302 4.67009 36.3367 4.69301 36.9485 4.72051C39.3869 4.83509 41.0506 5.22009 42.5104 5.78613C44.0229 6.36822 45.2971 7.15655 46.5712 8.42842C47.737 9.57364 48.6388 10.9595 49.2135 12.4893C49.7796 13.949 50.1646 15.6128 50.2792 18.0534C50.3067 18.663 50.3296 19.1695 50.3479 19.6851L50.3617 20.1297C50.396 21.2572 50.4098 22.5657 50.4144 25.1438L50.4167 26.8534V29.8555C50.4222 31.5271 50.4047 33.1986 50.364 34.8697L50.3502 35.3143C50.3319 35.8299 50.309 36.3363 50.2815 36.9459C50.1669 39.3865 49.7773 41.048 49.2135 42.5101C48.6388 44.0398 47.737 45.4257 46.5712 46.5709C45.426 47.7367 44.0402 48.6384 42.5104 49.2132C41.0506 49.7793 39.3869 50.1643 36.9485 50.2788L35.3169 50.3476L34.8723 50.3613C33.7425 50.3934 32.434 50.4095 29.8558 50.414L28.1462 50.4163H25.1465C23.4741 50.4222 21.8018 50.4047 20.13 50.3636L19.6854 50.3499C19.1414 50.3293 18.5975 50.3056 18.0538 50.2788C15.6154 50.1643 13.9517 49.7793 12.4896 49.2132C10.9607 48.6381 9.5756 47.7364 8.43104 46.5709C7.26446 45.4259 6.36192 44.04 5.78646 42.5101C5.22042 41.0503 4.83542 39.3865 4.72083 36.9459L4.65208 35.3143L4.64063 34.8697C4.59838 33.1986 4.57928 31.5271 4.58333 29.8555V25.1438C4.57699 23.4723 4.5938 21.8008 4.63375 20.1297L4.64979 19.6851C4.66813 19.1695 4.69104 18.663 4.71854 18.0534C4.83313 15.6128 5.21813 13.9513 5.78417 12.4893C6.36097 10.9589 7.2651 9.57297 8.43333 8.42842C9.57723 7.26322 10.9615 6.36151 12.4896 5.78613C13.9517 5.22009 15.6131 4.83509 18.0538 4.72051C18.6633 4.69301 19.1721 4.67009 19.6854 4.65176L20.13 4.63801C21.8011 4.59729 23.4726 4.57972 25.1442 4.5853L29.8558 4.58301ZM27.5 16.0413C24.4611 16.0413 21.5466 17.2486 19.3977 19.3974C17.2489 21.5463 16.0417 24.4607 16.0417 27.4997C16.0417 30.5386 17.2489 33.4531 19.3977 35.6019C21.5466 37.7508 24.4611 38.958 27.5 38.958C30.5389 38.958 33.4534 37.7508 35.6023 35.6019C37.7511 33.4531 38.9583 30.5386 38.9583 27.4997C38.9583 24.4607 37.7511 21.5463 35.6023 19.3974C33.4534 17.2486 30.5389 16.0413 27.5 16.0413ZM27.5 20.6247C28.4028 20.6245 29.2969 20.8022 30.131 21.1476C30.9652 21.4929 31.7232 21.9992 32.3617 22.6375C33.0002 23.2758 33.5067 24.0336 33.8524 24.8677C34.198 25.7017 34.376 26.5957 34.3761 27.4985C34.3763 28.4014 34.1986 29.2954 33.8533 30.1296C33.5079 30.9637 33.0016 31.7217 32.3633 32.3602C31.725 32.9987 30.9672 33.5053 30.1332 33.8509C29.2991 34.1965 28.4051 34.3745 27.5023 34.3747C25.6789 34.3747 23.9302 33.6503 22.6409 32.361C21.3516 31.0717 20.6273 29.323 20.6273 27.4997C20.6273 25.6763 21.3516 23.9276 22.6409 22.6383C23.9302 21.349 25.6789 20.6247 27.5023 20.6247M39.5335 12.6038C38.7738 12.6038 38.0452 12.9056 37.508 13.4429C36.9708 13.9801 36.669 14.7087 36.669 15.4684C36.669 16.2282 36.9708 16.9568 37.508 17.494C38.0452 18.0312 38.7738 18.333 39.5335 18.333C40.2933 18.333 41.0219 18.0312 41.5591 17.494C42.0963 16.9568 42.3981 16.2282 42.3981 15.4684C42.3981 14.7087 42.0963 13.9801 41.5591 13.4429C41.0219 12.9056 40.2933 12.6038 39.5335 12.6038Z" fill="#F6EDDD"/>
</svg>
