<svg width="45" height="45" viewBox="0 0 45 45" fill="none" xmlns="http://www.w3.org/2000/svg">
<path d="M42.3151 10.5556C39.7417 10.0622 37.4136 8.8708 35.6651 7.15233C33.9165 5.43386 32.8373 3.27666 32.5824 0.990287V0H23.6758V30.7664C23.6776 32.1316 23.1867 33.4626 22.2726 34.571C21.3584 35.6794 20.0674 36.5089 18.5825 36.9421C17.0975 37.3753 15.4938 37.3902 13.9986 36.9847C12.5034 36.5791 11.1924 35.7737 10.2514 34.6825C9.40839 33.7166 8.89216 32.5644 8.76113 31.3561C8.63009 30.1477 8.88946 28.9316 9.50992 27.845C10.1304 26.7585 11.0872 25.845 12.2721 25.2079C13.457 24.5707 14.8228 24.2353 16.215 24.2395C16.9847 24.2381 17.7504 24.3367 18.4868 24.5321V16.6548C17.6304 16.5636 16.7677 16.526 15.9052 16.5423C12.728 16.6163 9.64453 17.4964 7.03236 19.0749C4.42019 20.6533 2.39269 22.8616 1.19814 25.4293C0.00358517 27.997 -0.306168 30.8126 0.306808 33.5315C0.919783 36.2503 2.42888 38.7543 4.64931 40.7368C6.92496 42.7538 9.83705 44.1356 13.0155 44.7065C16.194 45.2774 19.4955 45.0116 22.5003 43.943C25.5052 42.8744 28.0778 41.0512 29.8914 38.705C31.705 36.3588 32.6776 33.5956 32.6857 30.7664V15.0118C36.2779 17.2489 40.5855 18.4455 45 18.4328V10.7806C44.133 10.7814 43.2681 10.706 42.4184 10.5556H42.3151Z" fill="#F6EDDD"/>
</svg>
