<svg width="55" height="45" viewBox="0 0 55 45" fill="none" xmlns="http://www.w3.org/2000/svg">
<path d="M53.8518 6.94078C53.5333 5.6031 52.9246 4.38462 52.085 3.40371C51.2454 2.42281 50.2034 1.71282 49.0602 1.34271C44.7706 6.41905e-05 27.5262 6.45151e-05 27.5262 6.45151e-05C27.5262 6.45151e-05 10.3145 -0.0321434 5.98019 1.34271C4.83889 1.71463 3.799 2.42542 2.96131 3.40621C2.12361 4.387 1.51652 5.60453 1.19887 6.94078C0.384533 12.0824 -0.0166652 17.302 0.000530066 22.5312C-0.0087459 27.7354 0.392403 32.9294 1.19887 38.0472C1.51801 39.3839 2.12543 40.602 2.96277 41.5845C3.8001 42.567 4.8392 43.2808 5.98019 43.6573C10.2698 45 27.5262 45 27.5262 45C27.5262 45 44.7276 45 49.0602 43.6573C50.2031 43.2826 51.2443 42.5696 52.0835 41.587C52.9228 40.6044 53.5318 39.3853 53.8518 38.0472C54.641 32.9322 55.0261 27.7307 54.9986 22.5312C55.0261 17.2975 54.6496 12.0879 53.8518 6.94078ZM22.0176 32.1673V12.8529L36.3719 22.5312L22.0176 32.1673Z" fill="#F6EDDD"/>
</svg>
