<svg width="70" height="70" viewBox="0 0 70 70" fill="none" xmlns="http://www.w3.org/2000/svg">
<path d="M63.3653 26.25H20.6544C19.7358 26.2498 18.8404 26.5387 18.0952 27.0758C17.35 27.6129 16.7928 28.371 16.5025 29.2425L8.75 52.5V21.875H61.25C61.25 20.7147 60.7891 19.6019 59.9686 18.7814C59.1481 17.9609 58.0353 17.5 56.875 17.5H33.0837C32.0604 17.4995 31.0697 17.1404 30.2838 16.485L27.4662 14.14C26.6803 13.4846 25.6896 13.1255 24.6663 13.125H8.75C7.58968 13.125 6.47688 13.5859 5.65641 14.4064C4.83594 15.2269 4.375 16.3397 4.375 17.5V52.5C4.375 53.6603 4.83594 54.7731 5.65641 55.5936C6.47688 56.4141 7.58968 56.875 8.75 56.875H56.875L67.3859 32.3488C67.6712 31.6833 67.7868 30.9575 67.7225 30.2364C67.6582 29.5153 67.416 28.8214 67.0175 28.217C66.619 27.6125 66.0768 27.1164 65.4393 26.7731C64.8019 26.4298 64.0893 26.2501 63.3653 26.25Z" fill="#F6EDDD"/>
</svg>
