<svg width="40" height="40" viewBox="0 0 40 40" fill="none" xmlns="http://www.w3.org/2000/svg">
<path d="M31.5462 0H8.45367C3.7848 0 0 3.78491 0 8.45379V31.5463C0 36.2152 3.7848 40 8.45367 40H31.5462C36.215 40 40 36.2152 40 31.5463V8.45379C40 3.78491 36.215 0 31.5462 0Z" fill="url(#paint0_linear_171_162)"/>
<path d="M20.0247 9.20257C18.4179 9.20455 16.8773 9.84383 15.7412 10.9801C14.6052 12.1165 13.9663 13.657 13.9647 15.2638C13.9647 17.4338 15.1472 19.3726 16.8672 20.4588C12.8922 21.7813 9.99219 25.5213 9.99219 29.9313C9.99219 30.3613 10.3759 30.7976 10.8072 30.7976C11.2372 30.7976 11.6272 30.3613 11.6209 29.9313C11.6209 25.2938 15.3872 21.5788 20.0247 21.5788C21.1227 21.5747 22.2106 21.7879 23.2258 22.2062C24.2411 22.6245 25.1635 23.2395 25.9399 24.016C26.7163 24.7924 27.3315 25.7148 27.7498 26.73C28.168 27.7453 28.3812 28.8333 28.377 29.9313C28.3645 30.3613 28.7622 30.7976 29.1922 30.7976C29.6234 30.7976 30.0134 30.3613 30.0071 29.9313C30.0071 25.5201 27.1447 21.7813 23.1822 20.4588C24.9022 19.3726 26.0859 17.4338 26.0859 15.2638C26.0843 13.6568 25.4451 12.116 24.3087 10.9797C23.1724 9.84334 21.6317 9.20422 20.0247 9.20257Z" fill="white"/>
<defs>
<linearGradient id="paint0_linear_171_162" x1="5.72586" y1="1.00778" x2="36.1153" y2="36.7079" gradientUnits="userSpaceOnUse">
<stop stop-color="#16FF6A"/>
<stop offset="1" stop-color="#0090A5"/>
</linearGradient>
</defs>
</svg>
