<svg width="55" height="55" viewBox="0 0 55 55" fill="none" xmlns="http://www.w3.org/2000/svg">
<path d="M27.5 3.2998C21.0818 3.2998 14.9264 5.84944 10.3881 10.3878C5.84968 14.9262 3.30005 21.0816 3.30005 27.4998C3.30005 32.2861 4.71935 36.9649 7.37848 40.9446C10.0376 44.9243 13.8171 48.026 18.2391 49.8577C22.6611 51.6893 27.5269 52.1686 32.2212 51.2348C36.9156 50.301 41.2276 47.9962 44.612 44.6118C47.9965 41.2274 50.3013 36.9153 51.2351 32.221C52.1688 27.5267 51.6896 22.6608 49.8579 18.2389C48.0263 13.8169 44.9245 10.0374 40.9448 7.37824C36.9652 4.71911 32.2864 3.2998 27.5 3.2998ZM37.0645 39.8803C36.5888 39.8803 36.2561 39.6988 35.9068 39.4871C32.6371 37.5043 28.5863 36.4648 24.1973 36.4648C21.9588 36.4648 19.5415 36.7316 17.0198 37.2486L16.7118 37.3256C16.3928 37.4026 16.0655 37.4878 15.8153 37.4878C15.5766 37.4919 15.3396 37.4481 15.1181 37.359C14.8966 37.27 14.6952 37.1375 14.5258 36.9693C14.3564 36.8012 14.2224 36.6008 14.1316 36.38C14.0409 36.1592 13.9953 35.9225 13.9975 35.6838C13.9975 34.6581 14.575 33.9321 15.543 33.7506C18.3843 33.0821 21.2923 32.7389 24.211 32.7276C29.3123 32.7276 33.8718 33.9101 37.7713 36.2448C38.4395 36.6353 38.8603 37.0863 38.8603 38.0818C38.8596 38.5581 38.6702 39.0147 38.3337 39.3518C37.9972 39.6888 37.5408 39.8789 37.0645 39.8803ZM39.5753 32.8376C39.0061 32.8376 38.632 32.6203 38.3021 32.4278C32.4088 28.9326 23.6363 27.7721 16.4093 29.6971L16.0793 29.7988C15.807 29.8841 15.554 29.9693 15.1965 29.9693C14.6238 29.9671 14.0753 29.7377 13.6715 29.3314C13.2678 28.925 13.0418 28.3751 13.0433 27.8023C13.0433 26.6501 13.6455 25.8443 14.7318 25.5363C17.5175 24.7718 20.1328 24.2658 23.8975 24.2658C29.9805 24.2658 35.8793 25.7921 40.502 28.5586C41.3435 29.0398 41.7258 29.6971 41.7258 30.6788C41.7265 31.2501 41.5005 31.7984 41.0972 32.2032C40.694 32.6079 40.1466 32.8361 39.5753 32.8376ZM42.4243 24.8076C41.8881 24.8076 41.558 24.6783 41.063 24.4116C37.0673 22.0136 30.833 20.5863 24.3733 20.5863C21.0073 20.5863 17.9493 20.9576 15.2818 21.6781L15.0123 21.7523C14.6884 21.8623 14.3504 21.9253 14.0085 21.9393C13.6738 21.9412 13.3421 21.8762 13.0328 21.7481C12.7235 21.62 12.443 21.4315 12.2076 21.1935C11.9721 20.9555 11.7866 20.6729 11.6619 20.3623C11.5372 20.0517 11.4758 19.7192 11.4813 19.3846C11.4813 18.1388 12.1798 17.1873 13.3513 16.8408C16.5715 15.8893 20.2785 15.4081 24.3678 15.4081C31.7323 15.4081 38.7393 17.0443 43.593 19.8933C44.5061 20.4131 44.9543 21.1996 44.9543 22.2913C44.9561 22.6234 44.8919 22.9526 44.7652 23.2596C44.6385 23.5666 44.452 23.8454 44.2165 24.0796C43.9811 24.3138 43.7013 24.4987 43.3936 24.6237C43.0859 24.7487 42.7564 24.8112 42.4243 24.8076Z" fill="#F6EDDD"/>
</svg>
